<svg width="184" height="137" viewBox="0 0 184 137" fill="none" xmlns="http://www.w3.org/2000/svg">
<path d="M10.9352 3.51005C10.6652 7.20006 10.3952 11.2501 10.1252 15.6601C9.8552 19.9801 9.7202 24.6601 9.7202 29.7001C9.7202 32.8501 9.9002 35.2801 10.2602 36.9901C10.6202 38.7001 11.4302 39.8701 12.6902 40.5001C13.9502 41.1301 15.9752 41.4451 18.7652 41.4451C23.6252 41.4451 27.9452 41.4001 31.7252 41.3101C35.5952 41.2201 40.0052 41.0401 44.9552 40.7701C45.6752 43.2901 46.1702 45.8101 46.4402 48.3301C46.8002 50.8501 46.9802 53.5501 46.9802 56.4301C46.9802 59.6701 46.7552 62.7301 46.3052 65.6101C45.9452 68.4001 45.3602 70.6501 44.5502 72.3601C43.7402 74.0701 42.7052 74.9251 41.4452 74.9251C40.8152 74.9251 39.8252 74.9251 38.4752 74.9251C37.1252 74.9251 35.7302 74.9251 34.2902 74.9251C32.9402 74.9251 31.9052 74.9251 31.1852 74.9251C28.2152 74.9251 25.6502 74.9701 23.4902 75.0601C21.4202 75.0601 19.8002 75.1051 18.6302 75.1951C15.5702 75.3751 13.7252 75.9601 13.0952 76.9501C12.5552 77.9401 12.1952 79.3351 12.0152 81.1351C11.7452 85.0951 11.4752 88.9651 11.2052 92.7451C11.0252 96.5251 10.8452 99.8101 10.6652 102.6C10.5752 105.39 10.5302 107.28 10.5302 108.27C10.5302 110.52 8.9102 111.645 5.6702 111.645C5.2202 105.885 4.8602 100.845 4.5902 96.5251C4.3202 92.2051 4.0952 88.2451 3.9152 84.6451C3.7352 81.0451 3.5102 77.5351 3.2402 74.1151C3.1502 73.5751 3.1052 73.0351 3.1052 72.4951C3.1052 71.9551 3.1052 71.4601 3.1052 71.0101C3.1052 67.1401 3.5102 64.3501 4.3202 62.6401C5.1302 60.8401 5.8952 59.6251 6.6152 58.9951C7.4252 58.3651 7.8302 57.8701 7.8302 57.5101C7.8302 57.1501 7.5602 56.7451 7.0202 56.2951C6.4802 55.8451 5.8052 55.0351 4.9952 53.8651C4.2752 52.6951 3.6002 50.9401 2.9702 48.6001C2.3402 46.2601 1.9352 43.0651 1.7552 39.0151C1.5752 34.5151 1.3502 30.1951 1.0802 26.0551C0.810196 21.8251 0.540196 18.0901 0.270196 14.8501C0.0901958 11.6101 0.000195775 9.18006 0.000195775 7.56006C0.000195775 6.93006 0.180196 6.43505 0.540196 6.07505C0.900196 5.71505 1.3052 5.40005 1.7552 5.13006C2.9252 4.59005 4.3652 4.18505 6.0752 3.91506C7.8752 3.64506 9.4952 3.51005 10.9352 3.51005ZM72.2104 5.13196e-05C72.0304 10.1701 71.7604 20.4301 71.4004 30.7801C71.0404 41.0401 70.6804 50.8051 70.3204 60.0751C70.0504 69.3451 69.8254 77.6701 69.6454 85.0501C69.6454 86.2201 68.9704 86.9851 67.6204 87.3451C66.3604 87.7951 65.2354 88.0201 64.2454 88.0201C64.0654 77.8501 63.7954 68.1751 63.4354 58.9951C63.1654 49.8151 62.8504 40.7251 62.4904 31.7251C62.1304 22.7251 61.6804 13.5001 61.1404 4.05006C61.1404 3.96006 61.1404 3.91506 61.1404 3.91506C61.1404 3.82506 61.1404 3.73506 61.1404 3.64505C61.1404 3.01506 61.5904 2.43005 62.4904 1.89005C63.6604 1.35005 65.1004 0.900053 66.8104 0.540052C68.6104 0.180052 70.4104 5.13196e-05 72.2104 5.13196e-05ZM112.54 75.0601C109.57 75.0601 107.14 75.0601 105.25 75.0601C103.36 75.0601 101.515 75.0601 99.7146 75.0601C98.0046 75.0601 95.7096 75.0601 92.8296 75.0601C92.2896 73.8001 91.6596 72.0901 90.9396 69.9301C90.3096 67.7701 89.7246 65.5201 89.1846 63.1801C88.6446 60.8401 88.1946 58.7251 87.8346 56.8351C87.4746 54.8551 87.2946 53.4151 87.2946 52.5151C87.2946 51.9751 88.3296 50.6701 90.3996 48.6001C92.5596 46.4401 95.3046 43.9201 98.6346 41.0401C101.965 38.1601 105.52 35.1451 109.3 31.9951C113.17 28.8451 116.815 25.9201 120.235 23.2201C123.655 20.4301 126.49 18.1801 128.74 16.4701C131.08 14.7601 132.385 13.9051 132.655 13.9051C133.015 13.9051 133.6 14.1301 134.41 14.5801C135.31 15.0301 136.12 15.5701 136.84 16.2001C137.65 16.7401 138.055 17.2351 138.055 17.6851C138.325 21.1951 138.55 25.2901 138.73 29.9701C138.91 34.5601 139.045 39.3301 139.135 44.2801C139.225 49.2301 139.27 54.0451 139.27 58.7251C139.27 63.2251 139.18 67.4551 139 71.4151C138.82 75.2851 138.505 78.4801 138.055 81.0001C137.695 83.6101 137.245 85.1851 136.705 85.7251C131.215 90.9451 124.6 96.3001 116.86 101.79C109.21 107.28 100.84 112.77 91.7496 118.26C82.7496 123.75 73.4346 129.195 63.8046 134.595C62.0046 134.145 60.9696 133.11 60.6996 131.49C74.6496 120.78 86.7096 110.7 96.8796 101.25C107.14 91.8901 115.33 83.5201 121.45 76.1401C121.81 75.6901 121.495 75.3751 120.505 75.1951C119.605 75.1051 116.95 75.0601 112.54 75.0601ZM109.57 55.6201C110.56 55.7101 111.91 55.7551 113.62 55.7551C115.33 55.7551 116.905 55.7551 118.345 55.7551C120.325 55.7551 122.08 55.7551 123.61 55.7551C125.14 55.6651 126.85 55.5751 128.74 55.4851C129.37 55.3951 129.73 55.2601 129.82 55.0801C130 54.9001 130.09 54.3601 130.09 53.4601C130.09 51.9301 129.955 50.1751 129.685 48.1951C129.505 46.1251 129.235 44.3251 128.875 42.7951C128.605 41.2651 128.29 40.5001 127.93 40.5001C127.48 40.5001 126.175 41.2201 124.015 42.6601C121.945 44.1001 119.56 45.9001 116.86 48.0601C114.16 50.1301 111.595 52.2901 109.165 54.5401C108.805 54.8101 108.67 55.0801 108.76 55.3501C108.85 55.5301 109.12 55.6201 109.57 55.6201ZM183.615 69.1201C183.615 74.5201 183.435 78.7051 183.075 81.6751C182.715 84.6451 182.175 86.8501 181.455 88.2901C180.735 89.7301 179.835 90.8551 178.755 91.6651C173.715 95.3551 168.63 98.9101 163.5 102.33C158.46 105.84 153.15 109.35 147.57 112.86C141.99 116.37 135.915 120.06 129.345 123.93C122.775 127.8 115.44 132.03 107.34 136.62C106.98 136.62 106.485 136.125 105.855 135.135C105.225 134.235 104.91 133.47 104.91 132.84C115.53 124.65 125.34 116.64 134.34 108.81C143.25 100.98 151.035 93.6451 157.695 86.8051C164.355 80.0551 169.485 74.2501 173.085 69.3901C173.535 66.5101 173.58 62.8651 173.22 58.4551C172.86 53.9551 172.095 49.1851 170.925 44.1451C170.925 44.0551 170.925 44.0101 170.925 44.0101C170.925 43.9201 170.925 43.8301 170.925 43.7401C170.925 43.1101 171.465 42.6151 172.545 42.2551C173.805 41.8051 175.245 41.4001 176.865 41.0401C178.575 40.6801 180.06 40.5001 181.32 40.5001C181.68 42.0301 181.995 44.0551 182.265 46.5751C182.535 49.0951 182.76 51.7951 182.94 54.6751C183.21 57.4651 183.39 60.1651 183.48 62.7751C183.57 65.2951 183.615 67.4101 183.615 69.1201Z" fill="white"/>
</svg>
